<svg t="1655452914322" class="icon" viewBox="0 0 1024 1024" version="1.1" xmlns="http://www.w3.org/2000/svg" p-id="1538" width="48" height="48"><path d="M793.6 992H230.4c-70.4 0-128-57.6-128-128V609.6c0-70.4 57.6-128 128-128h564.8c70.4 0 128 57.6 128 128V864c-1.6 70.4-59.2 128-129.6 128z" fill="#E1E1DF" p-id="1539"></path><path d="M937.6 382.4L606.4 68.8c-51.2-49.6-137.6-49.6-188.8 0L86.4 382.4C60.8 406.4 48 438.4 48 470.4V848c0 44.8 38.4 81.6 86.4 81.6h755.2c48 0 86.4-36.8 86.4-81.6V470.4c0-32-12.8-64-38.4-88z" fill="#4E8DF6" p-id="1540"></path><path d="M718.4 931.2H294.4c-70.4 0-128-57.6-128-128V416c0-70.4 57.6-128 128-128h424c70.4 0 128 57.6 128 128v387.2c0 70.4-57.6 128-128 128z" fill="#FFFFFF" p-id="1541"></path><path d="M472 414.4H294.4c-11.2 0-19.2-8-19.2-19.2v-3.2c0-11.2 8-19.2 19.2-19.2h177.6c11.2 0 19.2 8 19.2 19.2v3.2c0 11.2-9.6 19.2-19.2 19.2zM579.2 496H294.4c-11.2 0-19.2-8-19.2-19.2v-3.2c0-11.2 8-19.2 19.2-19.2h284.8c11.2 0 19.2 8 19.2 19.2v3.2c0 11.2-8 19.2-19.2 19.2z" fill="#4E8DF6" p-id="1542"></path><path d="M292.8 688L49.6 456c-1.6 4.8-1.6 9.6-1.6 14.4V848c0 20.8 8 38.4 20.8 52.8 6.4-4.8 11.2-12.8 17.6-19.2L292.8 688zM937.6 881.6c6.4 6.4 12.8 12.8 17.6 20.8 12.8-14.4 20.8-33.6 20.8-52.8V470.4c0-6.4 0-12.8-1.6-20.8L728 684.8l209.6 196.8z" fill="#629FF9" p-id="1543"></path><path d="M728 684.8l-121.6-115.2c-51.2-49.6-137.6-49.6-188.8 0L292.8 688 86.4 881.6c-6.4 6.4-11.2 14.4-17.6 20.8 16 17.6 38.4 28.8 64 28.8h755.2c25.6 0 49.6-11.2 64-28.8-4.8-8-11.2-14.4-17.6-20.8L728 684.8z" fill="#2166CC" p-id="1544"></path></svg>