<svg t="1655453667289" class="icon" viewBox="0 0 1024 1024" version="1.1" xmlns="http://www.w3.org/2000/svg" p-id="6809" width="32" height="32"><path d="M182.9 92.4h239.5c27.9 0.9 55.4 12 75.8 31.2 20.4 18.8 33.7 45.2 36.5 72.9 1.2 12.1 0.5 24.3 0.7 36.5h281.5c11.5 0.1 23.1-0.4 34.6 0.9 28.6 3.2 55.7 17.7 74.4 39.6 17.3 19.8 27.2 45.6 28.2 71.8v473.6c-0.8 18.3-5.6 36.4-14.6 52.4-16.5 29.9-46.7 51.9-80.4 57.9-7.1 1.6-14.4 1.4-21.6 2.5H188.1c-5.1-0.9-10.3-0.6-15.5-1.3-16.6-1.9-32.8-7.5-47.1-16.3-23-14-40.8-36.3-49.5-61.8-4.5-13-6.3-26.9-6.3-40.7V211.5c0.1-8.7 0.6-17.3 2.4-25.8 5.3-26.8 20.5-51.4 41.9-68.2 19.5-15.6 44.1-24.3 68.9-25.1m96.5 291.4c-10.3 1.9-18.6 11.5-18.8 22-0.5 9.4 5.6 18.6 14.3 22.1 5.9 2.6 12.5 1.6 18.7 1.8H740c9.9 0.1 19.4-6.6 22.3-16.1 3-8.7-0.1-19-7.2-24.8-4.2-3.6-9.7-5.4-15.1-5.4H289.3c-3.3 0-6.6-0.2-9.9 0.4m1.5 174.3c-8.6 0.9-16.3 7.2-19 15.4-4 10.7 1.5 23.8 11.9 28.5 5.9 3.1 12.6 2.1 19 2.3H741c11.2 0 21.3-9.3 22.4-20.4 1.9-12.9-9.3-25.9-22.4-25.8-153.4 0-306.7-0.3-460.1 0m0.9 174.4c-10.4 0.7-19.4 9.3-20.9 19.5-1.1 7.3 1.4 15 6.7 20 4.5 4.6 11 6.8 17.4 6.7h449.1c5.1 0 10.5 0.2 15.2-1.9 7-2.9 12.4-9.5 13.8-16.9 1.7-8.1-1.5-16.9-7.9-22.1-4.4-3.7-10.2-5.7-16-5.4-152.5 0.1-305-0.1-457.4 0.1z" p-id="6810" fill="#ffffff"></path></svg>