<svg t="1655452955129" class="icon" viewBox="0 0 1024 1024" version="1.1" xmlns="http://www.w3.org/2000/svg" p-id="1733" width="48" height="48"><path d="M832 988.8H192c-70.4 0-128-57.6-128-128v-544c0-70.4 57.6-128 128-128h640c70.4 0 128 57.6 128 128v544c0 70.4-57.6 128-128 128z" fill="#E1E1DF" p-id="1734"></path><path d="M536 931.2h-256c-70.4 0-128-57.6-128-128v-640c0-70.4 57.6-128 128-128h256c70.4 0 128 57.6 128 128v640c0 70.4-57.6 128-128 128z" fill="#4E8DF6" p-id="1735"></path><path d="M536 235.2h-112c-12.8 0-24-11.2-24-24s11.2-24 24-24h112c12.8 0 24 11.2 24 24s-11.2 24-24 24z" fill="#FFFFFF" p-id="1736"></path><path d="M296 211.2m-56 0a56 56 0 1 0 112 0 56 56 0 1 0-112 0Z" fill="#FFFFFF" p-id="1737"></path><path d="M536 408h-112c-12.8 0-24-11.2-24-24s11.2-24 24-24h112c12.8 0 24 11.2 24 24s-11.2 24-24 24z" fill="#FFFFFF" p-id="1738"></path><path d="M296 384m-56 0a56 56 0 1 0 112 0 56 56 0 1 0-112 0Z" fill="#FFFFFF" p-id="1739"></path><path d="M536 596.8h-112c-12.8 0-24-11.2-24-24s11.2-24 24-24h112c12.8 0 24 11.2 24 24 0 14.4-11.2 24-24 24z" fill="#FFFFFF" p-id="1740"></path><path d="M296 572.8m-56 0a56 56 0 1 0 112 0 56 56 0 1 0-112 0Z" fill="#FFFFFF" p-id="1741"></path><path d="M872 553.6l-172.8-99.2c-14.4-8-33.6-8-48 0L480 553.6c-14.4 8-24 24-24 41.6v198.4c0 17.6 9.6 33.6 24 41.6l172.8 99.2c14.4 8 33.6 8 48 0l172.8-99.2c14.4-8 24-24 24-41.6V595.2c-1.6-17.6-11.2-32-25.6-41.6z" fill="#2166CC" p-id="1742"></path><path d="M747.2 598.4L640 712l-32-33.6c-14.4-14.4-36.8-14.4-51.2 0-14.4 16-14.4 38.4 0 52.8l54.4 59.2c6.4 8 16 11.2 25.6 11.2s19.2-3.2 25.6-11.2l131.2-139.2c14.4-14.4 16-38.4 1.6-52.8-11.2-14.4-35.2-14.4-48 0z" fill="#FFFFFF" p-id="1743"></path></svg>