<svg t="1655452859204" class="icon" viewBox="0 0 1024 1024" version="1.1" xmlns="http://www.w3.org/2000/svg" p-id="1349" width="48" height="48"><path d="M740.8 992h-512c-70.4 0-128-57.6-128-128V160c0-70.4 57.6-128 128-128h512c70.4 0 128 57.6 128 128v704c0 70.4-57.6 128-128 128z" fill="#4E8DF6" p-id="1350"></path><path d="M532.8 308.8H270.4c-25.6 0-48-20.8-48-48v-11.2c0-25.6 22.4-48 48-48h262.4c27.2 0 48 20.8 48 48v11.2c0 25.6-20.8 48-48 48zM476.8 492.8h-208c-25.6 0-48-20.8-48-48v-11.2c0-25.6 22.4-48 48-48h206.4c25.6 0 48 22.4 48 48v11.2c1.6 27.2-19.2 48-46.4 48z" fill="#FFFFFF" p-id="1351"></path><path d="M878.4 976H552c-22.4 0-40-17.6-40-40v-12.8c0-22.4 17.6-40 40-40h324.8c22.4 0 40 17.6 40 40v12.8c0 20.8-17.6 40-38.4 40z" fill="#2166CC" p-id="1352"></path><path d="M942.4 816l-169.6-27.2c3.2-48 11.2-94.4 24-139.2 19.2-20.8 30.4-48 30.4-76.8v-4.8c-3.2-59.2-51.2-105.6-112-105.6-59.2 0-108.8 46.4-112 105.6v4.8c0 28.8 11.2 56 30.4 76.8 12.8 44.8 20.8 92.8 24 139.2L488 816c-12.8 1.6-24 12.8-24 27.2v57.6c0 14.4 12.8 27.2 27.2 27.2h4.8v6.4c0 14.4 6.4 28.8 16 40s24 16 38.4 16h326.4c14.4 0 28.8-6.4 38.4-16 9.6-11.2 16-25.6 16-40V928h4.8c16 0 27.2-12.8 27.2-27.2v-57.6c1.6-14.4-8-25.6-20.8-27.2z m-36.8 120c0 16-12.8 28.8-27.2 28.8H552c-14.4 0-27.2-12.8-27.2-28.8V928h382.4l-1.6 8z" fill="#E1E1DF" p-id="1353"></path></svg>