<svg t="1655453460466" class="icon" viewBox="0 0 1024 1024" version="1.1" xmlns="http://www.w3.org/2000/svg" p-id="1266" width="32" height="32"><path d="M825.088 187.84c83.968 83.968 127.424 189.888 130.368 317.632-2.944 127.744-46.4 233.6-130.368 317.632s-189.888 127.424-317.632 130.368c-127.744-2.944-233.6-46.4-317.632-130.368S62.4 633.216 59.456 505.472c2.944-127.744 46.4-233.6 130.368-317.632S379.712 60.416 507.456 57.472c127.744 2.944 233.664 46.4 317.632 130.368z m-118.976 432.704c8.192-8.448 12.224-19.072 12.224-31.936 0-12.8-4.096-23.488-12.224-31.936-8.192-8.448-18.944-12.672-32.384-12.672H335.104c-6.976 0-14.272 1.92-21.888 5.696-7.616 3.776-13.12 10.496-16.64 20.096s-4.992 18.816-4.352 27.584c0.576 8.768 4.096 16.64 10.496 23.616l115.52 133.888c2.944 3.52 7.296 6.592 13.12 9.216 5.824 2.624 11.968 3.968 18.368 3.968s12.544-1.344 18.368-3.968c5.824-2.624 10.496-5.696 14.016-9.216 9.92-9.92 15.744-20.544 17.472-31.936s-2.048-22.016-11.392-31.936l-50.752-57.728h236.224c13.504-0.064 24.256-4.288 32.448-12.736zM308.864 390.4c-8.192 8.448-12.224 19.136-12.224 31.936 0 12.864 4.096 23.744 12.224 32.832 8.192 9.024 18.944 15.04 32.384 17.92h332.48c6.976 0.576 14.272-1.152 21.888-5.248 7.552-4.096 13.12-10.944 16.64-20.544s4.8-18.816 3.968-27.584-4.224-16.32-10.048-22.72L590.592 262.272c-9.92-9.92-20.544-15.744-31.936-17.472s-22.016 2.048-31.936 11.392c-9.92 6.976-14.848 16.768-14.848 29.312s4.928 24.064 14.848 34.56l50.752 57.728H341.248c-13.44-0.064-24.256 4.16-32.384 12.608z" p-id="1267" fill="#ffffff"></path></svg>