<svg t="1655453555926" class="icon" viewBox="0 0 1026 1024" version="1.1" xmlns="http://www.w3.org/2000/svg" p-id="3195" width="32" height="32"><path d="M984.064 904.192H750.592c-39.424 49.664-89.088 90.624-145.92 119.808h378.88c22.016 0 39.936-17.92 39.936-39.936v-39.936c0.512-22.016-17.408-39.936-39.424-39.936z m0-225.792H845.312c-5.12 40.96-15.36 81.408-31.232 119.808h170.496c22.016 0 39.936-17.92 39.936-39.936v-39.936c-0.512-22.528-18.432-39.936-40.448-39.936z m0-226.304H814.08c15.872 38.4 26.624 78.336 31.232 119.808h138.752c22.016 0 39.936-17.92 39.936-39.936v-39.936c0-22.016-17.92-39.936-39.936-39.936z m0-225.792H606.208c56.32 29.184 105.472 70.144 144.896 119.808h232.96c22.016 0 39.936-17.92 39.936-39.936V266.24c0-22.528-17.92-39.936-39.936-39.936z m-584.704-0.512C178.688 225.792 0 404.48 0 624.64S178.688 1024 399.36 1024s399.36-178.688 399.36-399.36-179.2-398.848-399.36-398.848zM524.8 619.52v36.352h-90.624l-0.512 0.512v45.568H524.8v36.352h-91.136v82.432h-69.12v-82.432H273.92v-36.352h90.624v-45.568l-0.512-0.512H273.92V619.52h69.632l-104.96-190.976h77.824L399.36 593.92l82.944-165.376h77.824L454.656 619.52H524.8z" p-id="3196" fill="#ffffff"></path></svg>