<svg t="1655453612054" class="icon" viewBox="0 0 1024 1024" version="1.1" xmlns="http://www.w3.org/2000/svg" p-id="4949" width="32" height="32"><path d="M149.065143 121.709714h728.429714c25.014857 0 45.568-18.651429 45.568-41.398857 0-22.674286-20.48-41.545143-45.568-41.545143h-728.502857c-25.014857 0-45.568 18.578286-45.568 41.325715 0.146286 22.893714 20.553143 41.691429 45.641143 41.691428z m276.041143 377.490286h1.462857-1.462857z m524.288-294.253714H74.605714a46.153143 46.153143 0 0 0-45.568 46.226285v689.956572c0 25.526857 20.48 46.299429 45.568 46.299428h874.788572a46.153143 46.153143 0 0 0 45.568-46.299428V251.172571a46.08 46.08 0 0 0-45.568-46.226285zM662.089143 638.537143c25.014857 0 45.568 18.578286 45.568 41.325714 0 22.747429-20.48 41.398857-45.568 41.398857H552.886857v100.205715c0 25.526857-18.358857 46.299429-40.740571 46.299428-22.454857 0-40.813714-20.918857-40.813715-46.299428V721.408h-108.982857c-25.088 0-45.641143-18.651429-45.641143-41.398857 0-22.747429 20.48-41.398857 45.568-41.398857h108.982858v-59.611429h-108.982858c-25.014857 0-45.568-18.651429-45.568-41.398857 0-22.674286 20.48-41.398857 45.568-41.398857h60.342858l-22.381715-43.300572-26.404571-51.273142c-11.556571-22.674286-4.900571-49.590857 14.994286-60.269715 19.894857-10.605714 45.714286-0.731429 57.344 21.650286l21.211428 41.106286 1.170286 1.974857 21.869714 42.276571h0.219429l22.162285 42.861715 22.162286-42.861715h0.219429l21.869714-42.276571c0.292571-0.804571 0.731429-1.462857 1.097143-1.974857l21.211428-41.179429c11.629714-22.601143 37.449143-32.182857 57.417143-21.577143 19.894857 10.678857 26.624 37.595429 14.994286 60.269715l-26.404571 51.273142-22.381715 43.300572H602.697143h59.392c25.014857 0 45.641143 18.651429 45.641143 41.398857 0 22.674286-20.48 41.398857-45.641143 41.398857H552.813714v59.392h109.275429v0.146286z" p-id="4950" fill="#ffffff"></path></svg>